# xmcd
#
# Track frame offsets: 
#        151
#        13956
#        27706
#        41676
#        63876
#        89504
#        109536
#        121214
#        131724
#        148339
#        168288
#        181463
#
# Disc length: 2705 seconds
#
# Revision: 0
# Processed by: cddbd v1.5.2PL0 Copyright (c) Steve Scherf et al.
# Submitted via: ExactAudioCopyFreeDBPlugin 1.0
#
DISCID=ad0a8f0c
DTITLE=Ben Maitland - Ready Boots
DYEAR=2001
DGENRE=New Zealand: Country/Blues
TTITLE0=Ramblin Round
TTITLE1=Raise a Flagon
TTITLE2=Last Goodbyes
TTITLE3=Dirty Fern
TTITLE4=Ragrolls in Her Hair
TTITLE5=Henry Lee
TTITLE6=Our Garden
TTITLE7=Like Some Great Mystery
TTITLE8=Talkin Malls
TTITLE9=Lady Harry
TTITLE10=Sweeter Than Cactus Rose
TTITLE11=Her Love Has Grown Old
EXTD=
EXTT0=
EXTT1=
EXTT2=
EXTT3=
EXTT4=
EXTT5=
EXTT6=
EXTT7=
EXTT8=
EXTT9=
EXTT10=
EXTT11=
PLAYORDER=
